<svg xmlns="http://www.w3.org/2000/svg" viewBox="0 0 512 512" width="512" height="512">
  <rect width="512" height="512" rx="110" fill="#1976d2"/>
  <g transform="translate(96 80) scale(5)">
    <polygon points="14,26 18,8 32,22" fill="#F5E6D3"/>
    <polygon points="50,26 46,8 32,22" fill="#F5E6D3"/>
    <polygon points="18,22 21,12 28,21" fill="#F6B8C1"/>
    <polygon points="46,22 43,12 36,21" fill="#F6B8C1"/>
    <circle cx="32" cy="36" r="22" fill="#F5E6D3"/>
    <ellipse cx="22" cy="40" rx="5" ry="4" fill="#F6B8C1" opacity="0.6"/>
    <ellipse cx="42" cy="40" rx="5" ry="4" fill="#F6B8C1" opacity="0.6"/>
    <circle cx="25" cy="34" r="3" fill="#42342A"/>
    <circle cx="39" cy="34" r="3" fill="#42342A"/>
    <polygon points="30,40 34,40 32,43" fill="#E8859A"/>
    <path d="M28 45 Q32 49 36 45" fill="none" stroke="#42342A" stroke-width="2" stroke-linecap="round"/>
  </g>
</svg>
